<?xml version="1.0" encoding="utf-8"?>
<!-- Generator: Adobe Illustrator 25.4.1, SVG Export Plug-In . SVG Version: 6.00 Build 0)  -->
<svg version="1.1" id="Capa_1" xmlns="http://www.w3.org/2000/svg" xmlns:xlink="http://www.w3.org/1999/xlink" x="0px" y="0px"
	 viewBox="0 0 283.46 113.39" style="enable-background:new 0 0 283.46 113.39;" xml:space="preserve">
<style type="text/css">
	.st0{fill:#FFFFFF;}
</style>
<g>
	<g>
		<path class="st0" d="M86.56,32.26H41.18c-2.24,0-4.05-1.81-4.05-4.05c0-2.24,1.81-4.05,4.05-4.05h45.38
			c2.23,0,4.05,1.82,4.05,4.05C90.61,30.45,88.79,32.26,86.56,32.26z M41.18,26.35c-1.03,0-1.86,0.83-1.86,1.86
			c0,1.03,0.83,1.86,1.86,1.86h45.38c1.02,0,1.86-0.84,1.86-1.86c0-1.03-0.84-1.86-1.86-1.86H41.18z"/>
	</g>
	<g>
		<path class="st0" d="M79.3,81.85H48.44c-1.74,0-3.1-1.78-3.1-4.05c0-2.27,1.36-4.05,3.1-4.05H79.3c1.74,0,3.1,1.78,3.1,4.05
			C82.4,80.07,81.04,81.85,79.3,81.85z M48.44,75.94c-0.36,0-0.92,0.74-0.92,1.86c0,1.12,0.55,1.87,0.92,1.87H79.3
			c0.36,0,0.91-0.75,0.91-1.87c0-1.12-0.55-1.86-0.91-1.86H48.44z"/>
	</g>
	<g>
		<path class="st0" d="M75.54,75.94c-0.61,0-1.1-0.5-1.1-1.1c0-5.83-4.74-10.57-10.57-10.57c-5.83,0-10.58,4.74-10.58,10.57
			c0,0.6-0.48,1.1-1.09,1.1c-0.61,0-1.1-0.5-1.1-1.1c0-7.03,5.72-12.75,12.76-12.75c7.03,0,12.75,5.72,12.75,12.75
			C76.62,75.45,76.14,75.94,75.54,75.94z"/>
	</g>
	<g>
		<path class="st0" d="M63.87,64.27c-2.75,0-4.99-2.24-4.99-4.98c0-2.75,2.24-4.99,4.99-4.99c2.74,0,4.98,2.24,4.98,4.99
			C68.85,62.04,66.61,64.27,63.87,64.27z M63.87,56.49c-1.55,0-2.8,1.26-2.8,2.8c0,1.54,1.25,2.8,2.8,2.8c1.54,0,2.8-1.26,2.8-2.8
			C66.67,57.75,65.41,56.49,63.87,56.49z"/>
	</g>
	<g>
		<path class="st0" d="M75.43,56.49H52.31c-0.48,0-0.9-0.31-1.04-0.76L43.61,31.5c-0.1-0.33-0.05-0.69,0.16-0.98
			c0.21-0.28,0.54-0.44,0.88-0.44h38.44c0.34,0,0.67,0.16,0.88,0.44c0.21,0.29,0.26,0.65,0.16,0.98l-7.66,24.22
			C76.33,56.18,75.91,56.49,75.43,56.49z M53.11,54.3h21.52l6.96-22.04H46.15L53.11,54.3z"/>
	</g>
	<g>
		<path class="st0" d="M67.95,56.49h-8.16c-0.56,0-1.03-0.42-1.09-0.98L56.82,38.6c-0.07-0.6,0.36-1.13,0.96-1.21
			c0.6-0.07,1.15,0.37,1.21,0.96l1.77,15.94h6.2l1.78-15.94c0.06-0.6,0.62-1.03,1.21-0.96c0.6,0.07,1.03,0.61,0.97,1.21l-1.88,16.91
			C68.97,56.07,68.51,56.49,67.95,56.49z"/>
	</g>
	<g>
		<path class="st0" d="M36.44,58.13c-0.72,0-1.45-0.12-2.17-0.34c-4.09-1.31-6.6-5.66-5.98-10.31c0.61-4.52,4.13-8.03,8.56-8.54
			c5.46-0.64,11.99,1.87,14.21,8.91c0.18,0.58-0.13,1.19-0.71,1.37c-0.57,0.19-1.19-0.14-1.37-0.72c-1.85-5.85-7.31-7.93-11.88-7.38
			c-2.81,0.32-6.08,2.55-6.64,6.65c-0.48,3.55,1.44,6.96,4.48,7.94c1.61,0.51,2.91,0.11,3.73-0.33c1.07-0.56,1.94-1.53,2.22-2.45
			c0.17-0.58,0.78-0.91,1.36-0.74c0.58,0.17,0.91,0.78,0.74,1.36c-0.44,1.48-1.7,2.92-3.3,3.76C38.67,57.86,37.56,58.13,36.44,58.13
			z"/>
	</g>
	<g>
		<path class="st0" d="M91.3,58.13c-1.13,0-2.24-0.27-3.27-0.81c-1.59-0.85-2.86-2.28-3.3-3.76c-0.16-0.58,0.17-1.19,0.74-1.36
			c0.58-0.17,1.19,0.16,1.36,0.74c0.27,0.92,1.14,1.88,2.22,2.45c0.82,0.43,2.12,0.84,3.74,0.33c3.03-0.98,4.95-4.39,4.47-7.94
			c-0.55-4.1-3.83-6.33-6.64-6.65c-4.57-0.54-10.03,1.54-11.88,7.38c-0.18,0.58-0.79,0.9-1.37,0.72c-0.57-0.18-0.89-0.79-0.71-1.37
			c2.22-7.04,8.74-9.55,14.22-8.91c4.42,0.51,7.95,4.03,8.55,8.54c0.63,4.65-1.88,8.99-5.98,10.31
			C92.76,58.02,92.03,58.13,91.3,58.13z"/>
	</g>
</g>
<g>
	<path class="st0" d="M124.15,25.49c8.26,0,12.39,4.75,12.39,10.61c0,4.22-2.3,8.21-7.49,9.74l7.78,13.35h-9.27l-7.01-12.72h-1.97
		v12.72h-8.21v-33.7H124.15z M123.67,32.31h-5.09v8.35h5.09c3.07,0,4.51-1.58,4.51-4.22C128.19,33.94,126.75,32.31,123.67,32.31z"/>
	<path class="st0" d="M162.31,32.07h-12.43v6.82h10.99v6.34h-10.99v7.39h12.43v6.58h-20.64v-33.7h20.64V32.07z"/>
	<path class="st0" d="M165.82,25.49h26.07v6.58h-8.93v27.12h-8.21V32.07h-8.93V25.49z"/>
	<path class="st0" d="M209.78,25.49c8.26,0,12.38,4.75,12.38,10.61c0,4.22-2.3,8.21-7.49,9.74l7.78,13.35h-9.26l-7.01-12.72h-1.97
		v12.72h-8.21v-33.7H209.78z M209.3,32.31h-5.09v8.35h5.09c3.07,0,4.51-1.58,4.51-4.22C213.82,33.94,212.38,32.31,209.3,32.31z"/>
	<path class="st0" d="M243.24,59.53c-9.55,0-17.33-7.15-17.33-17.28s7.78-17.23,17.33-17.23c9.6,0,17.23,7.1,17.23,17.23
		S252.79,59.53,243.24,59.53z M243.24,52.04c5.38,0,8.88-3.89,8.88-9.79c0-6-3.5-9.79-8.88-9.79c-5.47,0-8.93,3.79-8.93,9.79
		C234.31,48.15,237.77,52.04,243.24,52.04z"/>
</g>
<g>
	<path class="st0" d="M116.84,65.25c3.62,0,6.5,1.82,7.75,5.06h-2.62c-0.91-2.02-2.69-3.14-5.14-3.14c-3.5,0-6.12,2.54-6.12,6.65
		c0,4.08,2.62,6.62,6.12,6.62c2.45,0,4.22-1.13,5.14-3.12h2.62c-1.25,3.22-4.13,5.02-7.75,5.02c-4.68,0-8.35-3.5-8.35-8.52
		S112.16,65.25,116.84,65.25z"/>
	<path class="st0" d="M133.57,82.41c-3.72,0-6.55-2.64-6.55-6.82c0-4.15,2.93-6.77,6.65-6.77c3.74,0,6.65,2.62,6.65,6.77
		C140.32,79.77,137.31,82.41,133.57,82.41z M133.57,80.49c2.28,0,4.51-1.56,4.51-4.9c0-3.31-2.18-4.87-4.44-4.87
		c-2.3,0-4.39,1.56-4.39,4.87C129.25,78.93,131.29,80.49,133.57,80.49z"/>
	<path class="st0" d="M152.82,74.75c0-2.69-1.46-4.06-3.67-4.06c-2.23,0-3.77,1.39-3.77,4.22v7.27h-2.18V69.04h2.18v1.87
		c0.86-1.37,2.45-2.11,4.22-2.11c3.05,0,5.38,1.87,5.38,5.64v7.75h-2.16V74.75z"/>
	<path class="st0" d="M163.21,82.41c-3.07,0-5.23-1.68-5.38-4.08h2.26c0.12,1.27,1.25,2.23,3.1,2.23c1.73,0,2.69-0.86,2.69-1.94
		c0-2.93-7.78-1.22-7.78-6.12c0-2.02,1.9-3.67,4.82-3.67c2.9,0,4.82,1.56,4.97,4.13h-2.18c-0.1-1.32-1.1-2.28-2.86-2.28
		c-1.61,0-2.57,0.77-2.57,1.82c0,3.12,7.63,1.42,7.73,6.12C168.01,80.78,166.12,82.41,163.21,82.41z"/>
	<path class="st0" d="M182.75,82.19h-2.18v-1.94c-0.84,1.37-2.45,2.14-4.2,2.14c-3.02,0-5.4-1.87-5.4-5.64v-7.71h2.16v7.42
		c0,2.66,1.46,4.03,3.67,4.03c2.26,0,3.77-1.39,3.77-4.22v-7.22h2.18V82.19z"/>
	<path class="st0" d="M186.44,64.43h2.18v17.76h-2.18V64.43z"/>
	<path class="st0" d="M192.83,70.84h-1.7v-1.8h1.7v-3.31h2.18v3.31h3.43v1.8h-3.43v7.75c0,1.3,0.48,1.75,1.82,1.75h1.61v1.85h-1.97
		c-2.33,0-3.65-0.96-3.65-3.6V70.84z"/>
	<path class="st0" d="M206.51,68.83c2.45,0,4.13,1.25,4.9,2.62v-2.4h2.21v13.15h-2.21v-2.45c-0.79,1.42-2.5,2.66-4.92,2.66
		c-3.5,0-6.22-2.76-6.22-6.84C200.27,71.47,202.98,68.83,206.51,68.83z M206.94,70.72c-2.4,0-4.44,1.75-4.44,4.85
		c0,3.1,2.04,4.92,4.44,4.92c2.4,0,4.46-1.8,4.46-4.9C211.4,72.55,209.34,70.72,206.94,70.72z"/>
	<path class="st0" d="M226.93,74.75c0-2.69-1.46-4.06-3.67-4.06c-2.23,0-3.77,1.39-3.77,4.22v7.27h-2.18V69.04h2.18v1.87
		c0.86-1.37,2.45-2.11,4.22-2.11c3.05,0,5.38,1.87,5.38,5.64v7.75h-2.16V74.75z"/>
	<path class="st0" d="M238.26,68.83c3.26,0,5.4,1.68,6.07,4.44h-2.35c-0.46-1.58-1.78-2.59-3.72-2.59c-2.4,0-4.18,1.7-4.18,4.92
		c0,3.26,1.78,4.97,4.18,4.97c1.94,0,3.24-0.94,3.72-2.59h2.35c-0.67,2.62-2.81,4.44-6.07,4.44c-3.74,0-6.41-2.64-6.41-6.82
		C231.85,71.47,234.51,68.83,238.26,68.83z"/>
	<path class="st0" d="M256.31,69.04h2.26l-7.92,19.35h-2.26l2.59-6.34l-5.3-13.01h2.42l4.13,10.66L256.31,69.04z"/>
</g>
</svg>
